<svg version="1" xmlns="http://www.w3.org/2000/svg" width="720" height="720" viewBox="0 0 540 540"><path d="M179.5 12.1c-2.2.4-6.5 1-9.5 1.3-3 .4-6.6.8-8 1.1-2.6.3-11.4 1.3-19 2-2.5.2-5.8.7-7.5.9-1.6.3-5.2.8-8 1.2-11.7 1.6-23 10-25.5 18.9-.8 2.8-1.4 5.3-1.3 5.7.2.3.5 5.7.8 12 .3 6.2.7 16.2 1 22.3.7 14.7 1.4 28.9 2 41 .2 5.5.7 13.8.9 18.5.3 4.7.8 15.2 1.2 23.5.3 8.2.8 17.7 1 21 .1 3.3.5 11.6.9 18.5.3 6.9.7 15.4.9 19 .2 3.6.7 13.9 1.1 23 .4 9.1.9 19.2 1.1 22.5.1 3.3.5 11.2.8 17.5 1.3 26.8 1.6 34 2.1 43.5.7 14 1.4 28.2 2 40.5.2 5.8.7 14.5.9 19.5.3 4.9.8 15.3 1.1 23 .4 7.7.9 17.6 1.1 22 .4 8.1.9 20.2 1.9 42 .3 6.6.8 13.1 1.1 14.4.7 3.2 4.1 6.3 9.9 9.2 6 3 8.3 6.4 9 12.9 1.5 14.7 11.1 21.3 27 18.6 2.2-.4 6.3-.9 9-1.2 2.8-.2 6.1-.6 7.5-.9 1.4-.2 5-.7 8-1 3-.3 6.6-.8 8-1 2.4-.4 6.6-1 14-1.9 10-1.3 20.5-3.5 24.6-5.2 4.8-2 10.2-8.1 11.6-12.9.8-3 .8-6.1-.2-12.5-1.2-8.7-1.7-12.5-2.6-19.5-.2-2.2-.6-5.4-.9-7-.2-1.7-.6-5.3-.8-8-.3-2.8-.8-7.1-1.2-9.7-.8-5.2.6-10.7 3.3-13.1 1-.9 3.5-1.8 5.6-2 3.4-.4 6.7 1 25.5 10.4 11.9 6 22.3 11.4 23.1 11.9 3 1.8 33.6 16 34.6 16 .5 0 1.5.5 2.1 1.1.6.6 3.8 2.2 7 3.6 14.2 6 25.9 10.5 28.3 10.9 1.4.3 3 .6 3.7.9 2.6.9 10.9-2.5 14-5.7 1.7-1.8 5.5-7.1 8.5-11.8 2.9-4.7 6.5-10.1 8-12 11.8-14.9 23-31.4 26.2-38.4 2.5-5.4 2.4-11.2-.4-17.1-1.3-2.8-2.4-6.1-2.5-7.5-1.4-16.2-5.7-20.7-31.5-33.1-24.4-11.8-75.9-37.7-106.8-53.8-8.4-4.4-13.4-8.8-13-11.5.4-3.1 4.4-8.5 14.8-19.6 1.9-2.1 6.9-7.5 11-12.1s10-10.9 13-14c3-3.1 10.2-10.8 16-17 11-11.8 41.2-44 53.4-56.9 3.9-4.1 10.7-11.5 15.1-16.4 4.4-4.9 9.1-10.1 10.5-11.5 9.5-9.9 15-20.4 13.4-25.9-.4-1.5-.9-3.6-1.1-4.7-.2-1.1-1.2-3.9-2.3-6.1-1-2.3-2-6.3-2.1-9-.5-9.6-1.7-12-20.1-39.5-7.6-11.4-13.8-21-13.8-21.3 0-1.3-6.2-9.2-8.9-11.3-3.2-2.6-19-7.2-25.3-7.4-8.8-.3-12.3 2.4-31.3 24.2-4.9 5.7-10.8 12.4-13 14.8-7.1 7.9-14.9 16.5-17.5 19.2-1.4 1.4-5.4 5.9-9 10-3.6 4.1-6.9 7.9-7.5 8.5-.5.6-3.7 4.2-7.1 8-25.4 28.8-25.1 28.5-27.9 25.4-2.2-2.4-2.3-4.6-2.9-43.5l-.5-30-4.2-8.2c-3.2-6.2-4.3-9.9-4.8-15-1.1-11.4-5-16.8-14.7-20.6-8.8-3.4-25.9-5.2-34.9-3.6z"/></svg>